<?xml version="1.0" standalone="no"?>
<!DOCTYPE svg PUBLIC "-//W3C//DTD SVG 20010904//EN"
 "http://www.w3.org/TR/2001/REC-SVG-20010904/DTD/svg10.dtd">
<svg version="1.0" xmlns="http://www.w3.org/2000/svg"
 width="878.000000pt" height="216.000000pt" viewBox="0 0 878.000000 216.000000"
 preserveAspectRatio="xMidYMid meet">

<g transform="translate(0.000000,216.000000) scale(0.100000,-0.100000)"
fill="#000000" stroke="none">
<path d="M3002 2139 c-220 -21 -408 -103 -560 -244 -99 -91 -189 -238 -227
-370 -46 -159 -47 -181 -52 -843 l-5 -632 286 0 286 0 0 225 0 225 405 0 405
0 0 -225 0 -225 291 0 290 0 -4 643 c-3 603 -5 648 -24 732 -96 422 -380 669
-823 715 -107 11 -149 11 -268 -1z m311 -507 c172 -80 227 -208 227 -523 l0
-159 -405 0 -405 0 0 143 c1 251 26 357 106 446 87 97 179 133 320 128 77 -4
103 -9 157 -35z"/>
<path d="M5563 2139 c-155 -18 -296 -85 -410 -194 -37 -36 -69 -65 -70 -65 -2
0 -3 52 -3 115 l0 115 -280 0 -280 0 0 -1030 0 -1030 290 0 289 0 3 648 c4
724 1 695 78 809 74 109 170 156 320 157 52 0 114 -5 137 -12 97 -29 184 -117
220 -225 16 -47 18 -116 21 -714 l3 -663 289 0 290 0 0 661 c0 420 -4 686 -11
732 -24 159 -68 291 -129 386 -121 187 -280 283 -515 310 -101 12 -138 12
-242 0z"/>
<path d="M10 1080 l0 -1030 290 0 290 0 0 270 0 270 238 0 c352 0 515 33 700
142 128 75 256 237 303 383 30 96 38 290 15 398 -50 246 -219 431 -478 526
-167 62 -282 71 -880 71 l-478 0 0 -1030z m1051 554 c114 -33 185 -106 209
-213 25 -109 -15 -244 -90 -303 -74 -58 -133 -70 -372 -76 l-218 -5 0 307 0
306 208 0 c161 0 221 -4 263 -16z"/>
<path d="M6840 1513 c0 -329 5 -652 10 -718 9 -117 33 -237 63 -321 59 -162
188 -314 324 -382 114 -57 284 -88 432 -79 125 8 195 27 310 83 74 37 109 62
162 115 38 38 69 69 71 69 2 0 2 -52 0 -115 l-3 -115 280 0 281 0 0 1030 0
1030 -284 0 -285 0 -3 -632 c-4 -557 -6 -640 -21 -691 -55 -188 -174 -286
-360 -295 -105 -5 -162 8 -235 56 -55 36 -76 60 -112 132 -44 87 -50 180 -50
828 l0 602 -290 0 -290 0 0 -597z"/>
</g>
</svg>
